<svg xmlns="http://www.w3.org/2000/svg" viewBox="0 0 100 100">
  <!-- Circle Frame (represents the cyclical nature/ecosystem) -->
  <circle cx="50" cy="50" r="45" fill="none" stroke="#000000" stroke-width="4"/>
  
  <!-- Sun (Simplified as a semi-circle rising over water) -->
  <path d="M30 50 A20 20 0 0 1 70 50" fill="none" stroke="#000000" stroke-width="4" />
  <line x1="25" y1="50" x2="75" y2="50" stroke="#000000" stroke-width="4" />
  
  <!-- Waves/Water (Simplified lines below) -->
  <path d="M30 65 Q 50 75 70 65" fill="none" stroke="#000000" stroke-width="4" />
  <path d="M35 75 Q 50 82 65 75" fill="none" stroke="#000000" stroke-width="3" />

  <!-- Palm Tree (Simplified abstract representation on the left) -->
  <!-- Trunk -->
  <path d="M25 80 Q 20 65 25 50" fill="none" stroke="#000000" stroke-width="4" stroke-linecap="round"/>
  <!-- Leaves -->
  <path d="M25 50 Q 15 45 10 55" fill="none" stroke="#000000" stroke-width="3" stroke-linecap="round"/>
  <path d="M25 50 Q 25 35 35 40" fill="none" stroke="#000000" stroke-width="3" stroke-linecap="round"/>
  <path d="M25 50 Q 35 45 40 55" fill="none" stroke="#000000" stroke-width="3" stroke-linecap="round"/>

  <!-- Tech/Smart Home Elements (Subtle connection nodes on the frame) -->
  <circle cx="50" cy="5" r="3" fill="#000000" />
  <circle cx="95" cy="50" r="3" fill="#000000" />
  <circle cx="50" cy="95" r="3" fill="#000000" />
  <circle cx="5" cy="50" r="3" fill="#000000" />
</svg>